
<svg width="512" height="512" viewBox="0 0 512 512" fill="none" xmlns="http://www.w3.org/2000/svg">
  <!-- Background Container -->
  <rect width="512" height="512" rx="110" fill="#31333F"/>
  
  <!-- Main Chat Bubble -->
  <path d="M140 160C140 137.909 157.909 120 180 120H332C354.091 120 372 137.909 372 160V280C372 302.091 354.091 320 332 320H240L160 380V320H180C157.909 320 140 302.091 140 280V160Z" fill="#FF4B4B"/>
  
  <!-- Central Magic Sparkle (AI Symbol) -->
  <path d="M256 180C256 210 240 236 210 236C240 236 256 262 256 292C256 262 272 236 302 236C272 236 256 210 256 180Z" fill="white"/>
  
  <!-- Secondary Sparkle -->
  <path d="M310 160C310 175 302 188 287 188C302 188 310 201 310 216C310 201 318 188 333 188C318 188 310 175 310 160Z" fill="white" opacity="0.8"/>
  
  <!-- Multimodal Lens (O for Omni) -->
  <circle cx="210" cy="180" r="25" stroke="white" stroke-width="8" opacity="0.6"/>
</svg>
